<?xml version="1.0" encoding="utf-8"?>
<!-- Generator: Adobe Illustrator 21.1.0, SVG Export Plug-In . SVG Version: 6.00 Build 0)  -->
<svg version="1.1" id="Layer_7" xmlns="http://www.w3.org/2000/svg" xmlns:xlink="http://www.w3.org/1999/xlink" x="0px" y="0px"
	 width="173px" height="38px" viewBox="0 0 173 38" style="enable-background:new 0 0 173 38;" xml:space="preserve">
<style type="text/css">
	.st0{fill:#C7D530;}
	.st1{fill:#00B3C4;}
	.st2{fill:#FFFFFF;}
</style>
<g>
	<path class="st0" d="M29.6,14.5c-4.2,6.9-4.7,14.8-4.7,14.8l-3.2-5.7l-3.9,2.2c-2.1,1.2-4.8,0.5-6-1.6l-9.7,5.5
		c2.7,5,7.9,8.3,13.9,8.3c8.7,0,15.8-7.1,15.8-15.8c0-2.4-0.5-4.7-1.5-6.7C29.9,15.1,29.7,14.8,29.6,14.5z"/>
	<path class="st1" d="M15.7,6C15.8,3.4,13.5,0,13.5,0S12.4,2.2,12,4.1c0.4,0.7,0.7,1.4,0.8,2.1C13.8,6.1,14.7,6,15.7,6z"/>
	<path class="st1" d="M11.6,24.2C11.6,24.2,11.6,24.2,11.6,24.2C11.6,24.2,11.6,24.2,11.6,24.2L11.6,24.2c-1.2-2.2-0.5-4.9,1.6-6.1
		l3.9-2.2l-3.2-5.7c0,0,7.1,3.6,15.3,3.5c0.3,0,1.3-1.3,1.1-1.6c-0.2-0.3-0.6,0.3-2,0.3c-9.3,0-10-5.5-12.5-6
		c-1.2,0-2.3,0.1-3.4,0.4C12.1,3.7,8,0,8,0S6.5,6.6,8.5,8.2C3.5,10.9,0,16.1,0,22.2c0,2.7,0.7,5.2,1.9,7.4L11.6,24.2z M15.1,7.4
		c0.6,0,1,0.5,1,1c0,0.6-0.5,1-1,1c-0.6,0-1-0.5-1-1C14.1,7.9,14.6,7.4,15.1,7.4z"/>
	<g>
		<g>
			<path class="st2" d="M49.7,9.7c0.2-0.9,0.9-1.8,1.8-1.8c1.1-0.1,2.2-0.1,3.2,0c0.9,0,1.6,0.7,1.8,1.5c2.6,7.4,5.2,14.7,7.8,22.1
				c0.5,1.1-0.9,1.5-1.7,1.4c-1.4-0.2-3.3,0.5-4.4-0.7c-0.7-1.4-0.9-3-1.5-4.4c-2.5,0-4.9,0-7.4,0c-0.4,1.4-0.7,2.9-1.3,4.3
				c-0.6,1.1-2,0.8-3.1,0.9c-1.1-0.1-2.4,0.3-3.2-0.7C44.4,24.6,47.1,17.2,49.7,9.7z M50.8,23.1c1.6,0,3.1,0,4.7,0
				c-0.8-2.7-1.6-5.3-2.4-8C52.3,17.7,51.6,20.4,50.8,23.1z"/>
		</g>
		<g>
			<path class="st2" d="M67.5,8c2.7-0.2,5.5,0,8.2-0.1C78.2,7.8,81,8.2,83,10c1.7,1.5,2.5,3.7,2.5,5.9c0,3,0,6,0,9
				c0,2.5-1.2,5.1-3.4,6.4c-1.8,1.2-4,1.5-6.1,1.5c-2.6,0-5.3,0-7.9,0c-0.9,0.1-1.5-0.9-1.4-1.8c0-7.1,0-14.2,0-21.3
				C66.6,9,66.9,8.3,67.5,8z M72.9,12.7c0.1,5.1,0,10.2,0,15.3c1.8-0.2,4,0.5,5.6-0.7c1.5-1.7,0.8-4.2,1-6.3
				c-0.1-2.3,0.4-4.7-0.5-6.9C77.7,11.9,74.9,13,72.9,12.7z"/>
		</g>
		<path class="st2" d="M86.8,8c1.7-0.2,3.3-0.2,5-0.1c1,0.2,1.3,1.3,1.5,2.1c1.5,5.2,3.1,10.4,4.4,15.7c1.4-5.4,2.9-10.7,4.3-16.1
			c0.2-0.8,0.7-1.7,1.6-1.7c1.4,0,2.8-0.1,4.2,0.1c0.8,0.4,0.5,1.3,0.2,1.9c-2.5,7.2-4.9,14.6-7.4,21.8c-0.7,1.5-2.6,1.1-4,1.1
			c-1,0.1-2.2-0.3-2.5-1.4c-2.5-7.2-5-14.5-7.5-21.7C86.6,9.1,86.7,8.6,86.8,8z"/>
		<g>
			<path class="st2" d="M113.8,9.7c0.2-0.8,0.7-1.6,1.5-1.7c1.2-0.2,2.4-0.1,3.6-0.1c0.9,0,1.6,0.7,1.8,1.5
				c2.6,7.4,5.2,14.7,7.8,22.1c0.3,0.6-0.1,1.2-0.7,1.3c-1.3,0.1-2.6,0.1-3.9,0c-0.7,0-1.5-0.5-1.7-1.2c-0.5-1.3-0.8-2.7-1.2-4
				c-2.5,0-4.9,0-7.4,0c-0.4,1.4-0.7,2.9-1.3,4.3c-0.6,1.1-2,0.8-3.1,0.9c-1.1-0.1-2.4,0.3-3.2-0.7C108.5,24.6,111.2,17.2,113.8,9.7
				z M114.9,23.1c1.6,0,3.2,0,4.7,0c-0.8-2.7-1.6-5.3-2.4-8C116.4,17.7,115.7,20.4,114.9,23.1z"/>
		</g>
		<g>
			<path class="st2" d="M130.8,9.4c0-0.8,0.6-1.6,1.4-1.5c2.3-0.1,4.6,0,6.8,0c3-0.1,6.3,0.1,8.6,2.3c2.2,2.2,2.3,5.6,1.9,8.5
				c-0.4,2.4-2.1,4.4-4.3,5.2c1.6,2.7,3.2,5.4,4.8,8.1c-0.1,0.2-0.4,0.5-0.5,0.7c-1.6,0-3.3,0.1-4.9,0c-0.8-0.1-1.5-0.7-1.9-1.4
				c-1.1-2.1-2.3-4.2-3.4-6.4c-0.8,0-1.6,0-2.3,0c0,1.9,0,3.8,0,5.7c0,0.6,0.1,1.4-0.5,1.8c-0.8,0.6-1.9,0.3-2.9,0.4
				c-0.8-0.1-1.8,0.2-2.4-0.4c-0.5-0.4-0.4-1.1-0.4-1.7C130.8,23.6,130.8,16.5,130.8,9.4z M137,12.7c0.1,2.5,0,5,0,7.5
				c1.5,0,3,0.1,4.6-0.1c1.4-0.3,2-1.9,2-3.2c0.1-1.5-0.1-3.6-1.8-4.1C140.1,12.6,138.5,12.8,137,12.7z"/>
		</g>
		<path class="st2" d="M153.9,8c1.4-0.2,2.8-0.1,4.2-0.1c0.7,0,1.2,0.8,1.2,1.5c0.1,2.8-0.1,5.7,0.1,8.5c1.8-2.3,3.3-4.9,5-7.3
			c0.7-1,1.4-2.5,2.8-2.7c1.6-0.1,3.1-0.1,4.7,0c0.7-0.1,0.9,0.8,0.4,1.2c-3,3.8-6,7.6-9,11.5c2.6,3.1,5.1,6.1,7.7,9.2
			c0.7,0.9,1.5,1.7,2,2.7c-1,0.7-2.2,0.3-3.3,0.4c-1.5,0-3.3,0.2-4.3-1.1c-2.1-2.6-3.9-5.4-6-8c-0.1,2.5,0,5.1,0,7.6
			c0.1,0.8-0.7,1.4-1.5,1.4c-1.2,0-2.4,0.1-3.5,0c-0.8-0.1-1.2-1-1.1-1.7c0-7.1,0-14.2,0-21.3C153.1,9,153.3,8.3,153.9,8z"/>
	</g>
</g>
</svg>
